<svg width="231" height="37" viewBox="0 0 231 37" fill="none" xmlns="http://www.w3.org/2000/svg">
<path d="M21.376 18.72C23.328 19.136 24.896 20.112 26.08 21.648C27.264 23.152 27.856 24.88 27.856 26.832C27.856 29.648 26.864 31.888 24.88 33.552C22.928 35.184 20.192 36 16.672 36H0.976V2.304H16.144C19.568 2.304 22.24 3.088 24.16 4.656C26.112 6.224 27.088 8.352 27.088 11.04C27.088 13.024 26.56 14.672 25.504 15.984C24.48 17.296 23.104 18.208 21.376 18.72ZM9.184 15.936H14.56C15.904 15.936 16.928 15.648 17.632 15.072C18.368 14.464 18.736 13.584 18.736 12.432C18.736 11.28 18.368 10.4 17.632 9.792C16.928 9.184 15.904 8.88 14.56 8.88H9.184V15.936ZM15.232 29.376C16.608 29.376 17.664 29.072 18.4 28.464C19.168 27.824 19.552 26.912 19.552 25.728C19.552 24.544 19.152 23.616 18.352 22.944C17.584 22.272 16.512 21.936 15.136 21.936H9.184V29.376H15.232ZM30.9846 22.56C30.9846 19.808 31.4966 17.392 32.5206 15.312C33.5766 13.232 35.0006 11.632 36.7926 10.512C38.5846 9.392 40.5846 8.832 42.7926 8.832C44.6806 8.832 46.3286 9.216 47.7366 9.984C49.1766 10.752 50.2806 11.76 51.0486 13.008V9.216H59.2566V36H51.0486V32.208C50.2486 33.456 49.1286 34.464 47.6886 35.232C46.2806 36 44.6326 36.384 42.7446 36.384C40.5686 36.384 38.5846 35.824 36.7926 34.704C35.0006 33.552 33.5766 31.936 32.5206 29.856C31.4966 27.744 30.9846 25.312 30.9846 22.56ZM51.0486 22.608C51.0486 20.56 50.4726 18.944 49.3206 17.76C48.2006 16.576 46.8246 15.984 45.1926 15.984C43.5606 15.984 42.1686 16.576 41.0166 17.76C39.8966 18.912 39.3366 20.512 39.3366 22.56C39.3366 24.608 39.8966 26.24 41.0166 27.456C42.1686 28.64 43.5606 29.232 45.1926 29.232C46.8246 29.232 48.2006 28.64 49.3206 27.456C50.4726 26.272 51.0486 24.656 51.0486 22.608ZM73.4028 0.48V36H65.1948V0.48H73.4028ZM77.719 22.56C77.719 19.808 78.231 17.392 79.255 15.312C80.311 13.232 81.735 11.632 83.527 10.512C85.319 9.392 87.319 8.832 89.527 8.832C91.415 8.832 93.063 9.216 94.471 9.984C95.911 10.752 97.015 11.76 97.783 13.008V9.216H105.991V36H97.783V32.208C96.983 33.456 95.863 34.464 94.423 35.232C93.015 36 91.367 36.384 89.479 36.384C87.303 36.384 85.319 35.824 83.527 34.704C81.735 33.552 80.311 31.936 79.255 29.856C78.231 27.744 77.719 25.312 77.719 22.56ZM97.783 22.608C97.783 20.56 97.207 18.944 96.055 17.76C94.935 16.576 93.559 15.984 91.927 15.984C90.295 15.984 88.903 16.576 87.751 17.76C86.631 18.912 86.071 20.512 86.071 22.56C86.071 24.608 86.631 26.24 87.751 27.456C88.903 28.64 90.295 29.232 91.927 29.232C93.559 29.232 94.935 28.64 96.055 27.456C97.207 26.272 97.783 24.656 97.783 22.608ZM128.249 8.928C131.385 8.928 133.881 9.952 135.737 12C137.625 14.016 138.569 16.8 138.569 20.352V36H130.409V21.456C130.409 19.664 129.945 18.272 129.017 17.28C128.089 16.288 126.841 15.792 125.273 15.792C123.705 15.792 122.457 16.288 121.529 17.28C120.601 18.272 120.137 19.664 120.137 21.456V36H111.929V9.216H120.137V12.768C120.969 11.584 122.089 10.656 123.497 9.984C124.905 9.28 126.489 8.928 128.249 8.928ZM142.641 22.608C142.641 19.824 143.201 17.392 144.321 15.312C145.473 13.232 147.057 11.632 149.073 10.512C151.121 9.392 153.457 8.832 156.081 8.832C159.441 8.832 162.241 9.712 164.481 11.472C166.753 13.232 168.241 15.712 168.945 18.912H160.209C159.473 16.864 158.049 15.84 155.937 15.84C154.433 15.84 153.233 16.432 152.337 17.616C151.441 18.768 150.993 20.432 150.993 22.608C150.993 24.784 151.441 26.464 152.337 27.648C153.233 28.8 154.433 29.376 155.937 29.376C158.049 29.376 159.473 28.352 160.209 26.304H168.945C168.241 29.44 166.753 31.904 164.481 33.696C162.209 35.488 159.409 36.384 156.081 36.384C153.457 36.384 151.121 35.824 149.073 34.704C147.057 33.584 145.473 31.984 144.321 29.904C143.201 27.824 142.641 25.392 142.641 22.608Z" fill="#3A4060"/>
<path d="M182.455 9.696V15.216H193.255V22.368H182.455V28.464H194.695V36H173.047V2.16H194.695V9.696H182.455ZM212.736 2.16C216.288 2.16 219.392 2.88 222.048 4.32C224.736 5.728 226.8 7.712 228.24 10.272C229.68 12.832 230.4 15.76 230.4 19.056C230.4 22.32 229.664 25.232 228.192 27.792C226.752 30.352 224.688 32.368 222 33.84C219.344 35.28 216.256 36 212.736 36H199.344V2.16H212.736ZM212.016 27.696C214.768 27.696 216.928 26.944 218.496 25.44C220.064 23.936 220.848 21.808 220.848 19.056C220.848 16.272 220.064 14.128 218.496 12.624C216.928 11.088 214.768 10.32 212.016 10.32H208.752V27.696H212.016Z" fill="#0D34FF"/>
</svg>